<?xml version="1.0" encoding="utf-8"?>
<!-- Generator: Adobe Illustrator 22.1.0, SVG Export Plug-In . SVG Version: 6.00 Build 0)  -->
<svg version="1.1" id="Layer_1" xmlns="http://www.w3.org/2000/svg" xmlns:xlink="http://www.w3.org/1999/xlink" x="0px" y="0px"
	 viewBox="0 0 251.2 279.4" style="enable-background:new 0 0 251.2 279.4;" xml:space="preserve">
<style type="text/css">
	.st0{fill:#FFFFFF;}
	.st1{fill:#223E99;stroke:#223E99;stroke-width:2.43;stroke-miterlimit:10;}
	.st2{fill:#223E99;stroke:#223E99;stroke-width:3.64;stroke-linecap:round;stroke-miterlimit:10;}
	.st3{fill:#223E99;stroke:#223E99;stroke-width:1.58;stroke-linecap:round;stroke-miterlimit:10;}
	.st4{fill:#223E99;}
	.st5{fill:#E34C53;}
</style>
<title>mark-malazarte</title>
<g id="Layer_2_1_">
	<g id="Layer_3">
		<path class="st0" d="M208.9,139.8c-0.3-0.6-0.7-1.1-1.1-1.6c-4-12.9-21.4-41.4-96.3-21.5c0,0-88.1,19.2-86.8,55
			c0,0,4.3,9.6-1,13.7c-0.3-0.2-0.6-0.3-1-0.3l-1.4,0.3c-3.4,0.6-14.2,3.6-13.4,16.2c0.2,4.9,2.5,9.5,6.3,12.6
			c4.8,3.7,10.8,5.3,16.8,4.4c0.8-0.1,1.5-0.2,2.3-0.4l3.5-0.8l1.5,3.3c4.9,10.4,10.3,21.1,16.9,28.4c6.3,7,14.5,14.8,28.3,19.6
			c9.3,3.3,20,4.9,32.8,5h0.8c8.1,0,16.1-0.6,24.1-1.6h0.5c23.9-3,55-14.2,63.8-36c4.6-11.3,3.2-20.6,1.5-31.4c-1.3-8.3-2.6-17-1-27
			c0.7-4.1,1.7-8.1,2.9-12.1l0.1-0.5c0.9-3.3,1.8-6.4,2.3-9.6c0.3-1.5,0.4-3.1,0.4-4.7c0.1-0.2,0.1-0.3,0.1-0.5
			C211.8,146.7,210.8,143,208.9,139.8z"/>
		<path class="st1" d="M79.3,171.4c6.2-0.2,12.5-0.3,18.7-0.1c4.2,0.1,21.9,2.8,25.8,3.8c7.6,1.9,3.1-4.4-2.4-7.7
			c-18.2-10.9-58.5-12.9-59.3-8.6c-0.8,3.9,0.2,8.6,4.1,10.8C69.5,171.4,74.7,171.6,79.3,171.4z"/>
		<path class="st2" d="M129,213.9c6.9,3.2,17.1,1.9,21.9-4.2c1.7-2.2-1.8-4.7-3.5-2.5c-3.6,4.6-11.7,5.1-16.8,2.8
			C128,208.7,126.4,212.7,129,213.9z"/>
		<path class="st1" d="M209.4,93.4c0,0-5.1-0.9-5.7-8.9c-2.4-42.2-13.6-55.6-13.6-55.6s-25.3-36.4-96-25.7
			C2.8,15.3,1.7,88.9,1.7,88.9c-3.6,34.5,14.5,80.8,17.3,88.3c0.4,1.1,0.9,2.2,1.4,3.3c0,0.1,0,0.2,0,0.3c-9.6,1.7-17.9,8.6-17.1,21
			c1,14.9,14.4,22.9,28.2,21.2c0.9-0.1,1.8-0.3,2.7-0.5c4.3,9.3,8.8,18.1,14.2,25.3h-0.2c1.1,1.5,2.2,2.9,3.4,4.2
			c12.5,13.9,29.3,26.4,66.9,26.1c7.8-0.1,15.5-0.6,23.2-1.6c0.1,0,0.3,0,0.4,0c25.4-3.1,57.9-15.2,67.5-38.8
			c6.4-15.8,2.2-28.4,0.6-42.4l-0.1,0.1c-0.7-5.7-0.7-11.4,0.1-17.1c0.9-5.4,3.9-16.1,3.9-16.1c0.5-2,3.9-9.8,1-22.9
			c-0.6-2.8-5.2-10.2-0.4-12.3c6.6-2.9,13.3,2.2,15.1,3.7C233.9,126.9,230.4,105.6,209.4,93.4z M207.6,165.3c-0.9,4-2.2,8-2.9,12.2
			c-1.6,10.2-0.3,19,1,27.4c1.6,10.6,3,19.7-1.5,30.7c-8.6,21.3-39.2,32.3-62.8,35.2h-0.4c-8.2,1-16.4,1.6-24.7,1.6
			c-12.6-0.1-23.3-1.7-32.4-4.9c-13.5-4.7-21.6-12.4-27.8-19.2c-6.5-7.2-11.8-17.8-16.7-28.1l-1.9-4.2l-4.4,1
			c-0.7,0.2-1.5,0.3-2.2,0.4c-5.6,0.8-11.4-0.7-15.9-4.2c-3.5-2.9-5.6-7.2-5.9-11.8c-0.8-11.3,8.4-14.2,12.4-15l1.4-0.3
			c1,2.2,2.1,4.3,3.2,6.2c-5.7,1.9-7.7,4-8.5,6.6c-2,6.2,2.7,10,6.7,10.2c2.3,0.1,2.5-0.9,1.8-2s-3.4-1.8-4.3-3.1
			c-2.7-4,2.4-6.9,6-7.2c0.3,0,0.6,0.1,0.9,0.1c1.8,3,4.4,5.6,7.5,7.4c1,0.6,3.7,1.2,3.5,0.1c-3.2-14-1.8-23.8-2-33.2
			c0.3-0.1,2.1,17.3,8.9,22c0.8,0.6,3.7,1.6,3.5,0.7c-0.8-3.5-1.6-6.5-0.1-14.3c0.3-1.5,10.8-23-6.4-32.8c23.5-8.8,52.6-1,61.9,0.2
			c8.9,1.1,2.5-8.8-6.6-14.1c10.6-3.6,52.6-17.2,91.6,5.7c14.3-7.8,14.4-1.6,14.4-1.6S212.8,141.4,207.6,165.3L207.6,165.3z"/>
		<path class="st3" d="M149.4,230.9c-24.5,0.8-48.3,9.8-59.2,16.3c-4.6,3-3.6,8.7,1.7,6.6c23.4-9,32.6-14.2,56.6-15.6
			C156.6,237.6,156.9,230.6,149.4,230.9z"/>
		<path class="st4" d="M114.4,194.3c-0.9-5,9.3-2.4,5.4-5.8c-11.6-9.9-37-9.8-47.9,1.2c-3.6,3.6,6,0.3,5.8,5.4
			C76.7,219,118,215,114.4,194.3z M104.4,189.8c2.9,0.1,5.1,2.6,4.9,5.4c-0.1,2.9-2.6,5.1-5.4,4.9c-2.9-0.1-5.1-2.6-4.9-5.4
			C99.2,191.9,101.6,189.7,104.4,189.8C104.5,189.8,104.5,189.8,104.4,189.8L104.4,189.8z"/>
		<path class="st1" d="M187.9,150.6c-5.8,2.2-11.6,4.5-17.3,7.1c-3.9,1.8-19.1,11-22.4,13.4c-6.3,4.6-4.6-2.8-0.7-8
			c12.6-17,51.1-35.9,53.6-32.3c2.2,3.3,3.1,8,0.3,11.6C199,145.3,192.3,149,187.9,150.6z"/>
		<path class="st4" d="M194.4,178.9c-1.6-4.8,8.5-4.3,4.1-6.8c-13.5-7.6-38-0.7-46.3,12.1c-2.8,4.3,6.3-1,6.8,4.1
			C161.3,209.1,202.1,201.4,194.4,178.9z M189.9,181.9c0.9,2.7-0.5,5.6-3.2,6.6s-5.6-0.5-6.6-3.2c-0.9-2.7,0.5-5.6,3.2-6.6
			c0,0,0,0,0,0C186,177.7,189,179.1,189.9,181.9L189.9,181.9z"/>
		<path class="st5" d="M251.2,104.1c-0.3-5-22.7-13.5-38.3-18.7v0.1c-57.8-19.8-150.6-1.3-183.4,38c4.1,3.7,9.1,6.4,14.5,7.6
			c28,6,54.7-16,80.2-23c32.7-9,62.7-8.4,95.8-2.7c4.3,0.8,8.6,1.6,12.9,2.6C236.8,109,251.7,111.3,251.2,104.1z"/>
		<path class="st0" d="M100.8,16.9c1.2,1.4,4.3,7.3,5.1,8.7c1,2,17.6,32.8,17.6,32.8s7-31.5,7.6-33.8c0.7-2.9,1.7-9.4,2.4-11.3
			c8.2-2.7,16.7,0.9,16.7,0.9c1.1,3,1.9,6.1,2.4,9.3c-2.3-0.9-4.8-0.9-7.2-0.2l4.4,29c0.4,3.1,0.4,4.3,1.4,5.4
			c0.8,0.9,3.6,0.3,7,0.9c0.4,2.1,1.9,7.8,1.9,8.2c-7.1-0.8-14.2-0.7-21.2,0.2c-0.7-2.3-1-4.7-1.2-7c0.4-0.1,3.2-0.4,3.4-0.5
			c2.6-0.6,3.3-0.2-0.8-21.2l-2.5-12.9l-3.2,12.7c-1,3.7-6,27.5-6.7,29.9c-1.9-0.1-3.8,0.1-5.6,0.6c-1.3-1.8-12.2-21-13.9-24.1
			c-0.5-1-1.1-2-1.8-3L98.9,29l2.4,14.5c0.3,1.8,3.1,18.1,3.2,19.3c0.1,2.5,2.4,0.7,4.9,0.5c0.8,2.4,1.2,4.9,1.3,7.5
			c-6.6,1.1-13,2.8-19.2,5.2c-0.3-1.5-1.4-7.6-1.5-8.4c0.2,0,2.4-0.3,3.2-0.5c4-1,3.6-0.9,2.5-7.6l-5.4-31.4c0,0-6.6,1.5-6.7,1.6
			c-0.1-0.6-1.6-7.8-1.8-10.1C87.8,17.9,92.8,16.4,100.8,16.9z"/>
	</g>
</g>
</svg>
